name ./resultDataOpenSim/trcMotMarkerGrf/sub10/grf-15-05.mot
datacolumns 19
datarows 15
range 1.00000000 1.05600000
endheader

                time	     ground_force_vx	     ground_force_vy	     ground_force_vz	     ground_force_px	     ground_force_py	     ground_force_pz	   l_ground_force_vx	   l_ground_force_vy	   l_ground_force_vz	   l_ground_force_px	   l_ground_force_py	   l_ground_force_pz	     ground_torque_x	     ground_torque_y	     ground_torque_z	   l_ground_torque_x	   l_ground_torque_y	   l_ground_torque_z	
          1.00000000	          0.00000000	          0.00000000	          0.00000000	          0.00000000	          0.00000000	          0.00000000	        126.59775741	        584.03051098	        -17.49420441	          0.00008609	         -0.09999500	         -0.09308939	          0.00000000	          0.00000000	          0.00000000	          0.00000000	         -0.93794881	          0.00000000	
          1.00400000	          0.00000000	          0.00000000	          0.00000000	          0.00000000	          0.00000000	          0.00000000	        125.85599066	        548.81876992	        -19.99003359	          0.00086500	         -0.09999500	         -0.09264305	          0.00000000	          0.00000000	          0.00000000	          0.00000000	         -0.88908732	          0.00000000	
          1.00800000	          0.00000000	          0.00000000	          0.00000000	          0.00000000	          0.00000000	          0.00000000	        123.81654518	        512.39705998	        -21.90825269	          0.00170942	         -0.09999408	         -0.09226798	          0.00000000	          0.00000000	          0.00000000	          0.00000000	         -0.85601053	          0.00000000	
          1.01200000	          0.00000000	          0.00000000	          0.00000000	          0.00000000	          0.00000000	          0.00000000	        120.57901586	        474.84876596	        -23.18300849	          0.00257856	         -0.09999400	         -0.09198242	          0.00000000	          0.00000000	          0.00000000	          0.00000000	         -0.83320791	          0.00000000	
          1.01600000	          0.00000000	          0.00000000	          0.00000000	          0.00000000	          0.00000000	          0.00000000	        116.25667907	        436.38831024	        -23.83189187	          0.00341639	         -0.09999400	         -0.09182163	          0.00000000	          0.00000000	          0.00000000	          0.00000000	         -0.81599478	          0.00000000	
          1.02000000	          0.00000000	          0.00000000	          0.00000000	          0.00000000	          0.00000000	          0.00000000	        110.94883758	        397.36408944	        -23.91651682	          0.00425361	         -0.09999400	         -0.09177812	          0.00000000	          0.00000000	          0.00000000	          0.00000000	         -0.80102925	          0.00000000	
          1.02400000	          0.00000000	          0.00000000	          0.00000000	          0.00000000	          0.00000000	          0.00000000	        104.73991315	        358.26009040	        -23.50076767	          0.00517612	         -0.09999400	         -0.09181692	          0.00000000	          0.00000000	          0.00000000	          0.00000000	         -0.78614179	          0.00000000	
          1.02800000	          0.00000000	          0.00000000	          0.00000000	          0.00000000	          0.00000000	          0.00000000	         97.72283372	        319.64048383	        -22.64313244	          0.00627596	         -0.09999328	         -0.09189852	          0.00000000	          0.00000000	          0.00000000	          0.00000000	         -0.76968308	          0.00000000	
          1.03200000	          0.00000000	          0.00000000	          0.00000000	          0.00000000	          0.00000000	          0.00000000	         90.01791430	        282.10395543	        -21.40693550	          0.00763645	         -0.09999300	         -0.09200411	          0.00000000	          0.00000000	          0.00000000	          0.00000000	         -0.74980658	          0.00000000	
          1.03600000	          0.00000000	          0.00000000	          0.00000000	          0.00000000	          0.00000000	          0.00000000	         81.77219384	        246.25738044	        -19.85940103	          0.00931207	         -0.09999300	         -0.09212739	          0.00000000	          0.00000000	          0.00000000	          0.00000000	         -0.72402579	          0.00000000	
          1.04000000	          0.00000000	          0.00000000	          0.00000000	          0.00000000	          0.00000000	          0.00000000	         73.16090823	        212.65334025	        -18.06186800	          0.01133920	         -0.09999300	         -0.09226788	          0.00000000	          0.00000000	          0.00000000	          0.00000000	         -0.68922277	          0.00000000	
          1.04400000	          0.00000000	          0.00000000	          0.00000000	          0.00000000	          0.00000000	          0.00000000	         64.40837149	        181.73720082	        -16.07016161	          0.01373970	         -0.09999356	         -0.09244485	          0.00000000	          0.00000000	          0.00000000	          0.00000000	         -0.64215746	          0.00000000	
          1.04800000	          0.00000000	          0.00000000	          0.00000000	          0.00000000	          0.00000000	          0.00000000	         55.79593225	        153.83628788	        -13.93689503	          0.01648374	         -0.09999400	         -0.09269132	          0.00000000	          0.00000000	          0.00000000	          0.00000000	         -0.58038040	          0.00000000	
          1.05200000	          0.00000000	          0.00000000	          0.00000000	          0.00000000	          0.00000000	          0.00000000	         47.62998946	        129.13716485	        -11.70505826	          0.01937178	         -0.09999400	         -0.09305694	          0.00000000	          0.00000000	          0.00000000	          0.00000000	         -0.50327431	          0.00000000	
          1.05600000	          0.00000000	          0.00000000	          0.00000000	          0.00000000	          0.00000000	          0.00000000	         40.19184011	        107.65268355	         -9.40911876	          0.02203064	         -0.09999444	         -0.09362963	          0.00000000	          0.00000000	          0.00000000	          0.00000000	         -0.41283473	          0.00000000	
